<svg width="33" height="34" viewBox="0 0 33 34" fill="none" xmlns="http://www.w3.org/2000/svg">
<path d="M8.64 5.868C7.392 5.868 6.48 5.64 5.904 5.184C5.352 4.704 5.076 3.96 5.076 2.952C5.076 1.92 5.352 1.176 5.904 0.719999C6.48 0.24 7.392 0 8.64 0C9.864 0 10.764 0.24 11.34 0.719999C11.916 1.176 12.204 1.92 12.204 2.952C12.204 3.96 11.916 4.704 11.34 5.184C10.764 5.64 9.864 5.868 8.64 5.868ZM11.7 7.956V26.964C11.7 28.596 11.412 29.904 10.836 30.888C10.284 31.872 9.492 32.58 8.46 33.012C7.428 33.468 6.18 33.696 4.716 33.696C3.756 33.696 2.88 33.588 2.088 33.372C1.296 33.18 0.6 32.904 0 32.544L0.864 28.584C1.128 28.776 1.452 28.932 1.836 29.052C2.22 29.196 2.664 29.268 3.168 29.268C3.888 29.268 4.464 29.052 4.896 28.62C5.352 28.212 5.58 27.48 5.58 26.424V7.956H11.7Z" fill="url(#paint0_linear_124_3)"/>
<path d="M6.01178 23.956V7.956H10.8758L11.0358 11.06C11.5478 9.92933 12.2624 9.076 13.1798 8.5C14.1184 7.924 15.1958 7.636 16.4118 7.636C17.6064 7.636 18.6411 7.90267 19.5158 8.436C20.3904 8.96933 21.0411 9.75867 21.4678 10.804C21.8091 10.1 22.2464 9.51333 22.7798 9.044C23.3344 8.57467 23.9638 8.22267 24.6678 7.988C25.3718 7.75333 26.0971 7.636 26.8438 7.636C27.9104 7.636 28.8491 7.84933 29.6598 8.276C30.4705 8.68133 31.1105 9.31067 31.5798 10.164C32.0704 10.996 32.3158 12.0413 32.3158 13.3V23.956H26.8758V14.548C26.8758 13.524 26.6731 12.8093 26.2678 12.404C25.8838 11.9987 25.3611 11.796 24.6998 11.796C24.1664 11.796 23.6758 11.9347 23.2278 12.212C22.8011 12.468 22.4705 12.8627 22.2358 13.396C22.0011 13.9293 21.8838 14.6013 21.8838 15.412V23.956H16.4438V14.548C16.4438 13.524 16.2411 12.8093 15.8358 12.404C15.4304 11.9987 14.9078 11.796 14.2678 11.796C13.7771 11.796 13.3078 11.924 12.8598 12.18C12.4331 12.436 12.0918 12.8413 11.8358 13.396C11.5798 13.9293 11.4518 14.6333 11.4518 15.508V23.956H6.01178Z" fill="url(#paint1_linear_124_3)"/>
<defs>
<linearGradient id="paint0_linear_124_3" x1="5.5" y1="17" x2="36.5" y2="17" gradientUnits="userSpaceOnUse">
<stop offset="0.00520833"/>
</linearGradient>
<linearGradient id="paint1_linear_124_3" x1="5.5" y1="17" x2="36.5" y2="17" gradientUnits="userSpaceOnUse">
<stop offset="0.00520833"/>
</linearGradient>
</defs>
</svg>
